<svg width="48" height="48" viewBox="0 0 24 24" fill="none" xmlns="http://www.w3.org/2000/svg" class="box-icon">
  <style>

    .box-outline { opacity: 1; transition: opacity 0.3s ease; }
    .box-fill { opacity: 0; transition: opacity 0.3s ease; }
    .box-icon:hover .box-outline { opacity: 0; }
    .box-icon:hover .box-fill { opacity: 1; }
  </style>
  <g class="box-outline">
    <path d="M12 21V13M12 21L5.83752 16.5982C5.42695 16.305 5.22166 16.1583 5.11083 15.943C5 15.7276 5 15.4753 5 14.9708V8M12 21L18.1625 16.5982C18.573 16.305 18.7783 16.1583 18.8892 15.943C19 15.7276 19 15.4753 19 14.9708V8M12 13L5 8M12 13L19 8M5 8L10.8375 3.83034C11.3989 3.42938 11.6795 3.2289 12 3.2289C12.3205 3.2289 12.6011 3.42938 13.1625 3.83034L19 8" stroke="#33363F" stroke-width="2" stroke-linejoin="round"/>
  </g>
  <g class="box-fill">
    <path fill-rule="evenodd" clip-rule="evenodd" d="M9.67505 19.3393L6.67505 17.1964C5.8539 16.6099 5.44333 16.3167 5.22166 15.8859C5 15.4552 5 14.9506 5 13.9415V10.0585C5 9.73711 5 9.46693 5.00716 9.234L11 13.5146V20.2313C10.6433 20.0309 10.227 19.7335 9.67505 19.3393ZM13 20.2313C13.3567 20.0309 13.773 19.7335 14.325 19.3393L17.325 17.1964C18.1461 16.6099 18.5567 16.3167 18.7783 15.8859C19 15.4552 19 14.9506 19 13.9415V10.0585C19 9.73711 19 9.46693 18.9928 9.234L13 13.5146V20.2313ZM18.1276 7.39426L12 11.7711L5.87244 7.39426C6.08372 7.2259 6.34653 7.03818 6.67505 6.80352L9.67505 4.66067C10.7977 3.85875 11.3591 3.45779 12 3.45779C12.6409 3.45779 13.2023 3.85875 14.325 4.66067L17.325 6.80352C17.6535 7.03818 17.9163 7.2259 18.1276 7.39426Z" fill="#33363F"/>
  </g>
</svg>
