<svg width="48" height="48" viewBox="0 0 24 24" fill="none" xmlns="http://www.w3.org/2000/svg" class="box-icon">
  <style>
    @keyframes rotate3d {
      0% { transform: rotate3d(1, 1, 0, 0deg); }
      100% { transform: rotate3d(1, 1, 0, 15deg); }
    }
    @keyframes rotate180 {
      0% { transform: rotate(0deg); }
      100% { transform: rotate(180deg); }
    }
    .box-icon {
      transition: stroke 0.3s ease, stroke-width 0.3s ease;
    }
    .box-icon:hover {
      animation: rotate3d 0.3s ease forwards, rotate180 0.5s ease 0.3s forwards;
    }
    .box-icon:hover path {
      stroke: #33363F;
      stroke-width: 1.2;
    }
  </style>
  <path d="M12 21V13M12 21L5.83752 16.5982C5.42695 16.305 5.22166 16.1583 5.11083 15.943C5 15.7276 5 15.4753 5 14.9708V8M12 21L18.1625 16.5982C18.573 16.305 18.7783 16.1583 18.8892 15.943C19 15.7276 19 15.4753 19 14.9708V8M12 13L5 8M12 13L19 8M5 8L10.8375 3.83034C11.3989 3.42938 11.6795 3.2289 12 3.2289C12.3205 3.2289 12.6011 3.42938 13.1625 3.83034L19 8" stroke="#222222" stroke-linejoin="round"/>
</svg>
