<svg width="48" height="48" viewBox="0 0 24 24" fill="none" xmlns="http://www.w3.org/2000/svg" class="add-icon">
  <style>
    .add-icon { transition: transform 0.3s ease; }
    .add-icon:hover .plus { transform-origin: center; animation: gentleSpin 0.5s ease-in-out forwards; }
    @keyframes gentleSpin { from { transform: rotate(0deg); } to { transform: rotate(45deg); } }
  </style>
  <path d="M3 11C3 7.22876 3 5.34315 4.17157 4.17157C5.34315 3 7.22876 3 11 3H13C16.7712 3 18.6569 3 19.8284 4.17157C21 5.34315 21 7.22876 21 11V13C21 16.7712 21 18.6569 19.8284 19.8284C18.6569 21 16.7712 21 13 21H11C7.22876 21 5.34315 21 4.17157 19.8284C3 18.6569 3 16.7712 3 13V11Z" stroke="#222222" stroke-width="2"/>
  <path class="plus" d="M12 8L12 16" stroke="#222222" stroke-width="2" stroke-linecap="square" stroke-linejoin="round"/>
  <path class="plus" d="M16 12L8 12" stroke="#222222" stroke-width="2" stroke-linecap="square" stroke-linejoin="round"/>
</svg>
