<svg width="24" height="24" viewBox="0 0 24 24" fill="none" xmlns="http://www.w3.org/2000/svg">
<path d="M21.5 19.5V8.5C21.5 7.39543 20.6046 6.5 19.5 6.5H15.5C14.3954 6.5 13.5 7.39543 13.5 8.5V19.5" stroke="#222222" stroke-linecap="round" stroke-linejoin="round"/>
<path d="M10.5 19.5V11.5H3.5C2.94772 11.5 2.5 11.9477 2.5 12.5V19.5" stroke="#222222" stroke-linecap="round" stroke-linejoin="round"/>
<path d="M3.5 11.5H21.5V14.5H2.5V12.5C2.5 11.9477 2.94771 11.5 3.5 11.5Z" stroke="#222222" stroke-linecap="round" stroke-linejoin="round"/>
<path d="M10.5 13.5V12.5C10.5 11.9477 10.9477 11.5 11.5 11.5H20.5C21.0523 11.5 21.5 11.9477 21.5 12.5V13.5C21.5 14.0523 21.0523 14.5 20.5 14.5H11.5C10.9477 14.5 10.5 14.0523 10.5 13.5Z" fill="#222222"/>
</svg>
