<svg width="48" height="48" viewBox="0 0 24 24" fill="none" xmlns="http://www.w3.org/2000/svg">
<path d="M21 19V6C21 6 20 4 16.5 4C13 4 12 7 12 7C12 7 11 4 7.5 4C4 4 3 6 3 6V19C3 19 4 17 7.5 17C11 17 12 19 12 19C12 19 13 17 16.5 17C20 17 21 19 21 19Z" fill="#7E869E" fill-opacity="0.25"/>
<path d="M12 6.5V18.5" stroke="#222222" stroke-linecap="round"/>
<path d="M20.5 6.5V18.5" stroke="#222222" stroke-linecap="round"/>
<path d="M3.5 6.5V18.5" stroke="#222222" stroke-linecap="round"/>
<path d="M20.5 18.5C20.5 18.5 19.5 16.5 16 16.5C12.5 16.5 12 18.5 12 18.5" stroke="white" stroke-linecap="round"/>
<path d="M3.5 18.5C3.5 18.5 4.5 16.5 8 16.5C11.5 16.5 12 18.5 12 18.5" stroke="white" stroke-linecap="round"/>
<path d="M20.5 6.5C20.5 6.5 19.5 4.5 16 4.5C12.5 4.5 12 6.5 12 6.5" stroke="white" stroke-linecap="round"/>
<path d="M3.5 6.5C3.5 6.5 4.5 4.5 8 4.5C11.5 4.5 12 6.5 12 6.5" stroke="white" stroke-linecap="round"/>
</svg>
