<svg width="24" height="24" viewBox="0 0 24 24" fill="none" xmlns="http://www.w3.org/2000/svg">
<path fill-rule="evenodd" clip-rule="evenodd" d="M10.0558 4.23109L8 7.99997L12.5 12.5L11.5 15L15 12L11 7.99997L12.3513 6.31319C12.4237 6.25668 12.4844 6.18005 12.525 6.0833C13.8648 2.89332 18.1316 2.30246 20.2879 5.00832L20.6761 5.49554C22.532 7.82444 22.215 11.2038 19.9584 13.1469L12.5681 19.5108L12.5681 19.5108C12.3387 19.7083 12.224 19.8071 12.0914 19.8317C12.031 19.843 11.969 19.843 11.9086 19.8317C11.7759 19.8071 11.6612 19.7083 11.4319 19.5108L11.4319 19.5108L4.04157 13.1469C1.785 11.2038 1.46802 7.82444 3.32386 5.49554L3.71211 5.00833C5.34547 2.95862 8.18991 2.80062 10.0558 4.23109Z" fill="#222222"/>
</svg>
