<svg width="48" height="48" viewBox="0 0 24 24" fill="none" xmlns="http://www.w3.org/2000/svg">
<rect x="3.5" y="9.5" width="17" height="3" rx="1.5" stroke="#222222" stroke-linecap="round"/>
<path d="M5.5 12.5V18.3C5.5 19.4201 5.5 19.9802 5.71799 20.408C5.90973 20.7843 6.21569 21.0903 6.59202 21.282C7.01984 21.5 7.57989 21.5 8.7 21.5H15.3C16.4201 21.5 16.9802 21.5 17.408 21.282C17.7843 21.0903 18.0903 20.7843 18.282 20.408C18.5 19.9802 18.5 19.4201 18.5 18.3V12.5" stroke="white" stroke-linecap="round"/>
<path d="M12.5 6.5V9.5H9.5C7.84315 9.5 6.5 8.15685 6.5 6.5C6.5 4.84315 7.84315 3.5 9.5 3.5C11.1569 3.5 12.5 4.84315 12.5 6.5Z" stroke="white" stroke-linecap="round"/>
<path d="M12.5 7.5V9.5H14.5C15.6046 9.5 16.5 8.60457 16.5 7.5C16.5 6.39543 15.6046 5.5 14.5 5.5C13.3954 5.5 12.5 6.39543 12.5 7.5Z" stroke="white" stroke-linecap="round"/>
<path d="M12.5 9.5V21.5" stroke="white" stroke-linecap="round"/>
</svg>
