<svg width="24" height="24" viewBox="0 0 24 24" fill="none" xmlns="http://www.w3.org/2000/svg">
<path d="M9.0098 12.093C8.73646 11.8978 8.59979 11.8002 8.46414 11.7881C8.34516 11.7776 8.22634 11.81 8.12918 11.8795C8.0184 11.9587 7.95019 12.1121 7.81376 12.4191L4.77521 19.2558C4.53166 19.8038 4.40989 20.0778 4.46175 20.2541C4.50675 20.4071 4.62202 20.5294 4.77205 20.5834C4.94494 20.6457 5.22568 20.5404 5.78715 20.3298L11.7191 18.1053C11.8231 18.0663 11.8751 18.0469 11.9285 18.0391C11.9759 18.0323 12.0241 18.0323 12.0715 18.0391C12.125 18.0469 12.177 18.0663 12.2809 18.1053L18.2129 20.3298C18.7744 20.5404 19.0551 20.6457 19.228 20.5834C19.378 20.5294 19.4933 20.4071 19.5383 20.2541C19.5902 20.0778 19.4684 19.8038 19.2249 19.2558L16.1863 12.4191C16.0499 12.1121 15.9817 11.9587 15.8709 11.8795C15.7737 11.81 15.6549 11.7776 15.5359 11.7881C15.4003 11.8002 15.2636 11.8978 14.9903 12.093L12.5813 13.8137C12.2336 14.0621 11.7665 14.0621 11.4188 13.8137L9.0098 12.093Z" fill="#222222"/>
<path d="M9.06113 9.61281C9.04946 9.63907 9.05787 9.66991 9.08124 9.6866L11.535 11.4393C11.7023 11.5588 11.786 11.6186 11.8772 11.6417C11.9578 11.6621 12.0422 11.6621 12.1228 11.6417C12.214 11.6186 12.2977 11.5588 12.465 11.4393L14.9188 9.6866C14.9421 9.66991 14.9506 9.63907 14.9389 9.61281L12.7311 4.6452C12.4995 4.12425 12.3838 3.86378 12.2224 3.78365C12.0823 3.71404 11.9177 3.71404 11.7776 3.78365C11.6163 3.86378 11.5005 4.12425 11.269 4.6452L9.06113 9.61281Z" fill="#7E869E" fill-opacity="0.25"/>
</svg>
